<svg width="0" height="0" class="hidden">
  <symbol xmlns="http://www.w3.org/2000/svg" viewBox="0 0 32 32" id="icon-search">
    <path d="M27.613 25.72 23.08 21.2a10.56 10.56 0 0 0 2.253-6.533C25.333 8.776 20.558 4 14.667 4S4 8.776 4 14.667c0 5.89 4.776 10.666 10.667 10.666A10.56 10.56 0 0 0 21.2 23.08l4.52 4.533a1.333 1.333 0 0 0 1.893 0 1.333 1.333 0 0 0 0-1.893ZM6.667 14.667a8 8 0 1 1 16 0 8 8 0 0 1-16 0Z" fill="#FFF"></path>
  </symbol>
  <symbol fill="none" xmlns="http://www.w3.org/2000/svg" viewBox="0 0 12 14" id="icon-bookmark-empty">
    <path d="M10.7112 0.771005L10.7215 0.775484L10.7319 0.779653C10.7992 0.806575 10.8386 0.840492 10.8705 0.886923C10.9032 0.934576 10.9167 0.977859 10.9167 1.03635V12.9636C10.9167 13.0221 10.9032 13.0654 10.8705 13.1131C10.8386 13.1595 10.7992 13.1934 10.7319 13.2203L10.7237 13.2236L10.7156 13.2271C10.7107 13.2292 10.6807 13.2407 10.6094 13.2407C10.5085 13.2407 10.4397 13.2142 10.3686 13.15L6.3572 9.2346L5.83333 8.72327L5.30946 9.2346L1.29754 13.1505C1.21287 13.2276 1.14206 13.25 1.05729 13.25C1.02004 13.25 0.988249 13.2433 0.955471 13.229L0.945175 13.2245L0.934749 13.2203C0.867434 13.1934 0.828051 13.1595 0.796199 13.1131C0.763509 13.0654 0.75 13.0221 0.75 12.9636V1.03635C0.75 0.977859 0.763509 0.934576 0.796198 0.886924C0.828051 0.840491 0.867435 0.806574 0.93475 0.779653L0.945175 0.775484L0.95547 0.771004C0.988248 0.756743 1.02004 0.75 1.05729 0.75H10.6094C10.6466 0.75 10.6784 0.756743 10.7112 0.771005Z" stroke="" stroke-width="1.5"></path>
  </symbol>
  <symbol xmlns="http://www.w3.org/2000/svg" viewBox="0 0 12 14" id="icon-bookmark-full">
    <path d="M10.61 0c.14 0 .273.028.4.083a1.03 1.03 0 0 1 .657.953v11.928a1.03 1.03 0 0 1-.656.953c-.116.05-.25.074-.402.074-.291 0-.543-.099-.756-.296L5.833 9.77l-4.02 3.924c-.218.203-.47.305-.756.305a.995.995 0 0 1-.4-.083A1.03 1.03 0 0 1 0 12.964V1.036A1.03 1.03 0 0 1 .656.083.995.995 0 0 1 1.057 0h9.552Z" fill="white"></path>
  </symbol>
  <symbol xmlns="http://www.w3.org/2000/svg" viewBox="0 0 12 12" id="icon-category-movie">
    <path d="M10.173 0H1.827A1.827 1.827 0 0 0 0 1.827v8.346C0 11.183.818 12 1.827 12h8.346A1.827 1.827 0 0 0 12 10.173V1.827A1.827 1.827 0 0 0 10.173 0ZM2.4 5.4H1.2V4.2h1.2v1.2ZM1.2 6.6h1.2v1.2H1.2V6.6Zm9.6-1.2H9.6V4.2h1.2v1.2ZM9.6 6.6h1.2v1.2H9.6V6.6Zm1.2-4.956V2.4H9.6V1.2h.756a.444.444 0 0 1 .444.444ZM1.644 1.2H2.4v1.2H1.2v-.756a.444.444 0 0 1 .444-.444ZM1.2 10.356V9.6h1.2v1.2h-.756a.444.444 0 0 1-.444-.444Zm9.6 0a.444.444 0 0 1-.444.444H9.6V9.6h1.2v.756Z" fill="#FFF" opacity=".75"></path>
  </symbol>
  <symbol xmlns="http://www.w3.org/2000/svg" viewBox="0 0 12 12" id="icon-category-tv">
    <path d="M12 2.689H5.448L7.068.722 6.132 0 4.2 2.345 2.268.017l-.936.705 1.62 1.967H0V12h12V2.689Zm-4.8 8.147h-6V3.853h6v6.983Zm3-2.328H9V7.344h1.2v1.164Zm0-2.328H9V5.016h1.2V6.18Z" fill="#FFF" opacity=".75"></path>
  </symbol>
  <symbol xmlns="http://www.w3.org/2000/svg" viewBox="0 0 17 20" id="icon-nav-bookmark">
    <path d="M15.387 0c.202 0 .396.04.581.119.291.115.522.295.694.542.172.247.258.52.258.82v17.038c0 .3-.086.573-.258.82a1.49 1.49 0 0 1-.694.542 1.49 1.49 0 0 1-.581.106c-.423 0-.79-.141-1.098-.423L8.46 13.959l-5.83 5.605c-.317.29-.682.436-1.097.436-.202 0-.396-.04-.581-.119a1.49 1.49 0 0 1-.694-.542A1.402 1.402 0 0 1 0 18.52V1.481c0-.3.086-.573.258-.82A1.49 1.49 0 0 1 .952.119C1.137.039 1.33 0 1.533 0h13.854Z" ></path>
  </symbol>
  <symbol xmlns="http://www.w3.org/2000/svg" viewBox="0 0 20 20" id="icon-nav-home">
    <path d="M8 0H1C.4 0 0 .4 0 1v7c0 .6.4 1 1 1h7c.6 0 1-.4 1-1V1c0-.6-.4-1-1-1Zm0 11H1c-.6 0-1 .4-1 1v7c0 .6.4 1 1 1h7c.6 0 1-.4 1-1v-7c0-.6-.4-1-1-1ZM19 0h-7c-.6 0-1 .4-1 1v7c0 .6.4 1 1 1h7c.6 0 1-.4 1-1V1c0-.6-.4-1-1-1Zm0 11h-7c-.6 0-1 .4-1 1v7c0 .6.4 1 1 1h7c.6 0 1-.4 1-1v-7c0-.6-.4-1-1-1Z" ></path>
  </symbol>
  <symbol xmlns="http://www.w3.org/2000/svg" viewBox="0 0 20 20" id="icon-nav-movies">
    <path d="M16.956 0H3.044A3.044 3.044 0 0 0 0 3.044v13.912A3.044 3.044 0 0 0 3.044 20h13.912A3.044 3.044 0 0 0 20 16.956V3.044A3.044 3.044 0 0 0 16.956 0ZM4 9H2V7h2v2Zm-2 2h2v2H2v-2Zm16-2h-2V7h2v2Zm-2 2h2v2h-2v-2Zm2-8.26V4h-2V2h1.26a.74.74 0 0 1 .74.74ZM2.74 2H4v2H2V2.74A.74.74 0 0 1 2.74 2ZM2 17.26V16h2v2H2.74a.74.74 0 0 1-.74-.74Zm16 0a.74.74 0 0 1-.74.74H16v-2h2v1.26Z" ></path>
  </symbol>
  <symbol xmlns="http://www.w3.org/2000/svg" viewBox="0 0 20 20" id="icon-nav-tv-series">
    <path d="M20 4.481H9.08l2.7-3.278L10.22 0 7 3.909 3.78.029 2.22 1.203l2.7 3.278H0V20h20V4.481Zm-8 13.58H2V6.42h10v11.64Zm5-3.88h-2v-1.94h2v1.94Zm0-3.88h-2V8.36h2v1.94Z" ></path>
  </symbol>
  <symbol xmlns="http://www.w3.org/2000/svg" viewBox="0 0 30 30" id="icon-play">
    <path d="M15 0C6.713 0 0 6.713 0 15c0 8.288 6.713 15 15 15 8.288 0 15-6.712 15-15 0-8.287-6.712-15-15-15Zm-3 21V8l9 6.5-9 6.5Z" fill="#FFF"></path>
  </symbol>
</svg>